<?xml version="1.0" standalone="no"?>
<!DOCTYPE svg PUBLIC "-//W3C//DTD SVG 20010904//EN"
 "http://www.w3.org/TR/2001/REC-SVG-20010904/DTD/svg10.dtd">
<svg version="1.0" xmlns="http://www.w3.org/2000/svg"
 width="2048.000000pt" height="2048.000000pt" viewBox="0 0 2048.000000 2048.000000"
 preserveAspectRatio="xMidYMid meet">
<metadata>
Created by potrace 1.14, written by Peter Selinger 2001-2017
</metadata>
<g transform="translate(0.000000,2048.000000) scale(0.100000,-0.100000)"
fill="#000000" stroke="none">
<path d="M9610 17389 c-1644 -57 -3255 -624 -4560 -1605 -541 -406 -1022 -874
-1436 -1394 -820 -1032 -1362 -2270 -1558 -3560 -63 -414 -81 -660 -80 -1125
0 -395 7 -536 45 -865 253 -2193 1489 -4196 3369 -5455 1067 -716 2292 -1165
3585 -1314 352 -41 451 -46 940 -46 501 0 648 8 1025 56 2241 283 4258 1482
5532 3289 720 1022 1176 2198 1327 3427 51 408 68 996 42 1383 -148 2147
-1173 4093 -2871 5455 -1227 983 -2753 1590 -4355 1730 -157 14 -686 37 -755
33 -14 -1 -126 -5 -250 -9z"/>
</g>
</svg>
